<svg height="512" viewBox="0 0 58 58" width="512" xmlns="http://www.w3.org/2000/svg"><g id="012---Blood-Bag" fill="none" transform="translate(0 -1)"><path id="Shape" d="m15 52h8v4c0 1.6568542-1.3431458 3-3 3h-2c-1.6568542 0-3-1.3431458-3-3z" fill="#84b5cb"/><path id="Shape" d="m58 50.8c0 4.418278-3.581722 8-8 8s-8-3.581722-8-8c0-5.4 5.421-10.8 7.338-12.542.3746134-.3431952.9493866-.3431952 1.324 0 1.917 1.742 7.338 7.142 7.338 12.542z" fill="#c03a2b"/><path id="Shape" d="m56.857 48.971c.0601262 2.4892536-1.233501 4.8155872-3.3797949 6.0778951-2.1462938 1.262308-4.8081164 1.262308-6.9544102 0-2.1462939-1.2623079-3.4399211-3.5886415-3.3797949-6.0778951 0-4.63 4.646-9.259 6.29-10.751.3211552-.2931712.8128448-.2931712 1.134 0 1.644 1.492 6.29 6.121 6.29 10.751z" fill="#e64c3c"/><path id="Shape" d="m54 26.7c.10589 1.496575-.632504 2.9270732-1.9137947 3.7076139-1.2812906.7805407-2.89112.7805407-4.1724106 0-1.2812907-.7805407-2.0196847-2.2110389-1.9137947-3.7076139 0-2.829 2.71-5.658 3.669-6.57.1843295-.1790911.4776705-.1790911.662 0 .959.916 3.669 3.745 3.669 6.57z" fill="#c03a2b"/><path id="Shape" d="m53.273 25.485c.0856282 1.2239523-.5188009 2.3934063-1.5667959 3.0314486-1.0479949.6380423-2.3644133.6380423-3.4124082 0-1.047995-.6380423-1.6524241-1.8074963-1.5667959-3.0314486 0-2.314 2.218-4.629 3-5.375.1507238-.147101.3912762-.147101.542 0 .786.746 3.004 3.061 3.004 5.375z" fill="#e64c3c"/><path id="Shape" d="m54 7.7c.10589 1.49657503-.632504 2.9270732-1.9137947 3.7076139-1.2812906.7805407-2.89112.7805407-4.1724106 0-1.2812907-.7805407-2.0196847-2.21103887-1.9137947-3.7076139 0-2.829 2.71-5.658 3.669-6.57.1843295-.17909111.4776705-.17909111.662 0 .959.916 3.669 3.745 3.669 6.57z" fill="#c03a2b"/><path id="Shape" d="m53.273 6.485c.0856282 1.22395227-.5188009 2.39340634-1.5667959 3.03144863-1.0479949.63804227-2.3644133.63804227-3.4124082 0-1.047995-.63804229-1.6524241-1.80749636-1.5667959-3.03144863 0-2.314 2.218-4.629 3-5.375.1507238-.14710097.3912762-.14710097.542 0 .786.746 3.004 3.061 3.004 5.375z" fill="#e64c3c"/><path id="Shape" d="m46 51.923c-.5522847 0-1-.4477153-1-1 0-2.985 2.671-6.348 4.263-8.087.2413329-.2634834.6049004-.3782025.9537502-.3009438.3488497.0772588.6299831.3347579.7375.6755001.1075168.3407421.0250827.7129603-.2162502.9764437-2.338 2.556-3.738 5.074-3.738 6.736 0 .5522847-.4477153 1-1 1z" fill="#fb7b76"/><circle id="Oval" cx="48" cy="54" fill="#fb7b76" r="1"/><path id="Shape" d="m38 11.636v38.728c-.0038465 1.4542264-1.1817736 2.6321535-2.636 2.636h-32.728c-1.45422637-.0038465-2.63215355-1.1817736-2.636-2.636v-38.728c.00384645-1.4542264 1.18177363-2.63215355 2.636-2.636h2.728c1.4558226 0 2.636-1.1801774 2.636-2.636v-2.728c.00384645-1.45422637 1.18177363-2.63215355 2.636-2.636h16.728c1.4542264.00384645 2.6321535 1.18177363 2.636 2.636v2.728c0 1.4558226 1.1801774 2.636 2.636 2.636h2.728c1.4542264.00384645 2.6321535 1.1817736 2.636 2.636z" fill="#9fc9d3"/><path id="Shape" d="m33 25v23c0 .5522847-.4477153 1-1 1h-26c-.55228475 0-1-.4477153-1-1v-23z" fill="#e64c3c"/><path id="Shape" d="m33 14v11h-28v-11c0-.5522847.44771525-1 1-1h26c.5522847 0 1 .4477153 1 1z" fill="#84b5cb"/><g fill="#35495e"><path id="Shape" d="m33 28v2h-4c-.5522847 0-1-.4477153-1-1s.4477153-1 1-1z"/><path id="Shape" d="m33 44v2h-4c-.5522847 0-1-.4477153-1-1s.4477153-1 1-1z"/><path id="Shape" d="m33 32v2h-5c-.5522847 0-1-.4477153-1-1s.4477153-1 1-1z"/><path id="Shape" d="m33 40v2h-5c-.5522847 0-1-.4477153-1-1s.4477153-1 1-1z"/><path id="Shape" d="m33 36v2h-4c-.5522847 0-1-.4477153-1-1s.4477153-1 1-1z"/></g><circle id="Oval" cx="19" cy="7" fill="#84b5cb" r="2"/></g></svg>