<svg id="Layer_1" enable-background="new 0 0 512 512" height="512" viewBox="0 0 512 512" width="512" xmlns="http://www.w3.org/2000/svg"><g><g><g><path d="m451.482 10.656v491.05c0 5.683-4.612 10.295-10.295 10.295h-110.234c-5.683 0-10.295-4.612-10.295-10.295v-491.05c0-5.683 4.612-10.295 10.295-10.295h110.234c5.683 0 10.295 4.612 10.295 10.295z" fill="#fcb44d"/><path d="m408.884 156.54c0 11.973-9.708 21.68-21.68 21.68-7.134 0-13.445-3.469-17.398-8.792l-49.146 10.15v-41.908h55.899c3.15-1.771 6.774-2.8 10.645-2.8 11.973 0 21.68 9.697 21.68 21.67z" fill="#fca62f"/><path d="m451.483 10.656v491.05c0 5.683-4.612 10.295-10.295 10.295h-37.184c5.683 0 10.295-4.612 10.295-10.295v-491.05c0-5.683-4.612-10.295-10.295-10.295h37.184c5.683 0 10.295 4.612 10.295 10.295z" fill="#fca62f"/><g fill="#5169cd"><path d="m451.482 350.19v15.442h-30.173c-4.262 0-7.721-3.459-7.721-7.721s3.459-7.721 7.721-7.721z"/><path d="m451.482 309.898v15.442h-19.879c-4.262 0-7.721-3.459-7.721-7.721s3.459-7.721 7.721-7.721z"/><path d="m451.482 269.605v15.442h-19.879c-4.262 0-7.721-3.459-7.721-7.721s3.459-7.721 7.721-7.721z"/><path d="m451.482 229.312v15.442h-19.879c-4.262 0-7.721-3.459-7.721-7.721s3.459-7.721 7.721-7.721z"/><path d="m451.482 189.019v15.442h-30.173c-4.262 0-7.721-3.459-7.721-7.721s3.459-7.721 7.721-7.721z"/><path d="m451.482 471.069v15.442h-19.879c-4.262 0-7.721-3.449-7.721-7.721 0-4.262 3.459-7.721 7.721-7.721z"/><path d="m451.482 430.776v15.442h-19.879c-4.262 0-7.721-3.449-7.721-7.721 0-4.262 3.459-7.721 7.721-7.721z"/><path d="m451.482 390.483v15.442h-19.879c-4.262 0-7.721-3.459-7.721-7.721s3.459-7.721 7.721-7.721z"/><path d="m451.482 148.726v15.442h-19.879c-4.262 0-7.721-3.459-7.721-7.721s3.459-7.721 7.721-7.721z"/><path d="m451.482 108.433v15.442h-19.879c-4.262 0-7.721-3.459-7.721-7.721 0-4.272 3.459-7.721 7.721-7.721z"/><path d="m451.482 68.141v15.442h-19.879c-4.262 0-7.721-3.459-7.721-7.721 0-4.272 3.459-7.721 7.721-7.721z"/><path d="m451.482 27.848v15.442h-30.173c-4.262 0-7.721-3.459-7.721-7.721 0-4.272 3.459-7.721 7.721-7.721z"/></g><g fill="#ffeee7"><path d="m361.212 472.74c-4.265 0-7.721-3.457-7.721-7.721v-16.914c0-4.264 3.456-7.721 7.721-7.721s7.721 3.457 7.721 7.721v16.914c0 4.264-3.456 7.721-7.721 7.721z"/><path d="m387.208 472.74c-4.265 0-7.721-3.457-7.721-7.721v-85.188c0-4.264 3.456-7.721 7.721-7.721s7.721 3.457 7.721 7.721v85.188c0 4.264-3.457 7.721-7.721 7.721z"/></g></g><path d="m201.707 492.255c7.554-42.041 24.139-142.218 24.139-211.666 0-13.301-.855-25.366-2.306-36.268h-111.994c-1.452 10.912-2.316 22.967-2.316 36.268 0 69.448 16.585 169.625 24.146 211.666z" fill="#b5dbfd"/><path d="m175.258 492.255v-196.852c0-4.262-3.459-7.721-7.721-7.721s-7.721 3.459-7.721 7.721v196.852z" fill="#8dcafc"/><path d="m124.15 318.536h54.318c9.495 0 16.994 8.104 16.203 17.567-4.987 59.705-15.821 124.454-21.518 156.152h28.554c7.554-42.037 24.141-142.223 24.141-211.666 0-13.304-.856-25.366-2.313-36.276h-111.986c-1.457 10.921-2.323 22.972-2.323 36.276 0 10.238.356 21.138.998 32.426 3.627 3.412 8.506 5.521 13.926 5.521z" fill="#8dcafc"/><path d="m203.012 484.905c-1.369 7.783-2.543 14.176-3.397 18.788-.906 4.818-5.116 8.308-10.017 8.308h-44.123c-4.9 0-9.111-3.49-10.006-8.308-.865-4.612-2.038-11.005-3.408-18.788z" fill="#ffeee7"/><path d="m184.174 113.751v-37.391h-43.097v37.392l-31.75 9.498c-13.176 3.941-23.722 13.865-28.456 26.778l-18.608 50.754c-3.869 10.553-1.181 22.395 6.865 30.244l35.587 34.714-.774 7.152c-1.301 12.022 8.117 22.514 20.209 22.514h87.258c12.108 0 21.531-10.519 20.205-22.554l-10.678-96.878 166.261-34.352v-27.868h-203.022z" fill="#fb4a59"/><path d="" fill="#fdb0a0"/><path d="m162.625 98.923c-19.083 0-34.552-15.469-34.552-34.552v-9.84c0-15.039 12.192-27.231 27.231-27.231h14.641c15.039 0 27.231 12.192 27.231 27.231v9.84c.001 19.082-15.468 34.552-34.551 34.552z" fill="#fdb0a0"/><path d="m104.099 198.151-5.512-5.128c-3.122-2.905-8.007-2.727-10.912.394-2.904 3.122-2.728 8.007.394 10.912l6.681 6.215c-6.901 7.53-15.868 14.311-27.454 18.508.571.683 1.182 1.345 1.834 1.976l35.584 34.708 11.532-97.114c-.164.849-2.992 14.791-12.147 29.529z" fill="#f82f40"/><path d="m220.939 175.975 14.491-2.995c0-.278-.01-.556-.041-.844l-1.606-14.762c-.453-4.241-4.262-7.309-8.503-6.846-4.241.453-7.309 4.262-6.846 8.503l.002.017c.197 1.822-.283 3.637-1.271 5.18-17.954 28.044-17.192 108.619-17.192 108.619 1.324 12.041-8.099 22.554-20.201 22.554h31.631c12.113 0 21.536-10.513 20.211-22.554z" fill="#f82f40"/><path d="m206.114 25.547c0 14.471-8.62 21.586-8.62 21.586-21.546 0-29.886-9.664-29.886-21.586s8.62-21.586 19.253-21.586 19.253 9.664 19.253 21.586z" fill="#a34f41"/><path d="m149.405 0c-8.41 0-17.875 3.88-25.243 7.92-4.743 2.601-6.565 1.019-7.938.168-9.655-5.982-10.267 11.765-8.125 19.873 4.344 16.444 18.367 26.638 39.007 26.638 20.639 0 37.371-12.222 37.371-27.299-.001-15.078-14.433-27.3-35.072-27.3z" fill="#ba5d4f"/><circle cx="387.195" cy="132.423" fill="#fdb0a0" r="21.451"/><g fill="#e22334"><path d="m125.427 300.893c-4.265 0-7.721-3.457-7.721-7.721v-19.363c0-4.264 3.456-7.721 7.721-7.721s7.721 3.457 7.721 7.721v19.363c0 4.264-3.457 7.721-7.721 7.721z"/><path d="m153.501 300.893c-4.265 0-7.721-3.457-7.721-7.721v-19.363c0-4.264 3.456-7.721 7.721-7.721s7.721 3.457 7.721 7.721v19.363c-.001 4.264-3.457 7.721-7.721 7.721z"/><path d="m181.574 300.893c-4.265 0-7.721-3.457-7.721-7.721v-19.363c0-4.264 3.456-7.721 7.721-7.721s7.721 3.457 7.721 7.721v19.363c0 4.264-3.456 7.721-7.721 7.721z"/><path d="m209.648 300.893c-4.265 0-7.721-3.457-7.721-7.721v-19.363c0-4.264 3.456-7.721 7.721-7.721s7.721 3.457 7.721 7.721v19.363c0 4.264-3.456 7.721-7.721 7.721z"/></g><path d="m172.933 164.536h-10.791c-4.265 0-7.721-3.457-7.721-7.721s3.456-7.721 7.721-7.721h10.791c4.265 0 7.721 3.457 7.721 7.721-.001 4.264-3.457 7.721-7.721 7.721z" fill="#ffeee7"/></g><path d="m159.817 484.905h15.442v27.095h-15.442z" fill="#ffd496"/></g></svg>