<?xml version="1.0" encoding="iso-8859-1"?>
<!-- Generator: Adobe Illustrator 21.0.0, SVG Export Plug-In . SVG Version: 6.00 Build 0)  -->
<svg xmlns="http://www.w3.org/2000/svg" xmlns:xlink="http://www.w3.org/1999/xlink" version="1.1" id="Capa_1" x="0px" y="0px" viewBox="0 0 512 512" style="enable-background:new 0 0 512 512;" xml:space="preserve" width="512" height="512">
<g>
	<path style="fill:#CBF5A9;" d="M0.257,86.562C-2.921,39.734,34.182,0,81.086,0h349.828c46.904,0,84.007,39.734,80.829,86.562   l-23.74,349.86C485.116,478.966,449.787,512,407.174,512H104.826c-42.613,0-77.942-33.034-80.829-75.578L0.257,86.562z"/>
	<path style="fill:#B2E38A;" d="M430.914,0h-33.996c46.904,0,84.007,39.734,80.829,86.562l-23.74,349.86   C451.12,478.966,415.791,512,373.178,512h33.996c42.613,0,77.942-33.034,80.829-75.578l23.74-349.86   C514.921,39.734,477.818,0,430.914,0z"/>
	<path style="fill:#F4F4FF;" d="M139.59,172.04c0-64.292,52.119-116.41,116.41-116.41s116.41,52.119,116.41,116.41H139.59z"/>
	<g>
		<circle style="fill:#5E6478;" cx="70.052" cy="69.022" r="19.573"/>
		<circle style="fill:#5E6478;" cx="441.948" cy="69.022" r="19.573"/>
	</g>
	<g>
		<circle style="fill:#5E6478;" cx="93.746" cy="438.857" r="19.573"/>
		<circle style="fill:#5E6478;" cx="418.254" cy="438.857" r="19.573"/>
	</g>
	<g>
		<path style="fill:#5E6478;" d="M230.711,89.826c0.662,0,1.335-0.086,2.005-0.265c4.122-1.105,6.567-5.342,5.463-9.463    l-6.065-22.011c-5.091,1.062-10.058,2.46-14.882,4.163l6.02,21.848C224.178,87.55,227.299,89.826,230.711,89.826z"/>
		<path style="fill:#5E6478;" d="M189.149,114.72c1.977,0,3.955-0.755,5.463-2.263c3.018-3.018,3.018-7.909,0-10.927l-16.235-16.235    c-3.841,3.439-7.453,7.129-10.808,11.045l16.117,16.117C185.195,113.966,187.172,114.72,189.149,114.72z"/>
		<path style="fill:#5E6478;" d="M316.041,110.334c1.509,1.509,3.486,2.263,5.463,2.263c1.977,0,3.955-0.755,5.463-2.263    l15.843-15.842c-3.436-3.844-7.122-7.459-11.035-10.818l-15.734,15.734C313.024,102.424,313.024,107.316,316.041,110.334z"/>
		<path style="fill:#5E6478;" d="M277.161,88.784c0.67,0.179,1.343,0.265,2.005,0.265c3.411,0,6.533-2.277,7.458-5.728l5.891-21.841    c-4.856-1.603-9.852-2.894-14.967-3.851l-5.851,21.692C270.594,83.442,273.039,87.679,277.161,88.784z"/>
		<path style="fill:#5E6478;" d="M228.227,104.389c-2.088-3.722-6.797-5.045-10.519-2.958c-3.721,2.088-5.046,6.797-2.958,10.519    l33.774,60.091h17.726L228.227,104.389z"/>
	</g>
</g>















</svg>
